<svg width="431" height="168" viewBox="0 0 431 168" fill="none" xmlns="http://www.w3.org/2000/svg">
<path d="M349.102 104C349.102 104 355.348 108.659 361.502 111.5C368.604 114.779 367.557 137.539 374.743 140.224C377.124 141.114 381.102 142 381.102 142" stroke="#EF438B"/>
<path d="M353.102 68C353.102 68 358.488 62.5023 361.902 57.5C367.119 49.8548 375.344 57.5617 380.499 49.8137C383.734 44.9514 385.102 33 385.102 33" stroke="#EF438B"/>
<path d="M126.102 88C126.102 88 140.267 84.0815 149.464 84.0013C159.155 83.9168 174.102 88 174.102 88" stroke="#EF438B"/>
<path d="M314.102 87C314.102 87 299.936 90.9185 290.739 90.9987C281.048 91.0832 266.102 87 266.102 87" stroke="#EF438B"/>
<rect x="173.602" y="67.5" width="93" height="39" rx="7.5" fill="#1F1A2B" stroke="#EF438B"/>
<circle cx="405.102" cy="144" r="23.5" fill="#1F1A2B" stroke="#EF438B"/>
<circle cx="406.102" cy="24" r="23.5" fill="#1F1A2B" stroke="#EF438B"/>
<circle cx="337.102" cy="85" r="23.5" fill="#1F1A2B" stroke="#EF438B"/>
<path d="M415.655 138.334L410.767 133.446C410.645 133.324 410.5 133.227 410.341 133.161C410.181 133.095 410.01 133.06 409.838 133.06C409.665 133.06 409.494 133.095 409.334 133.161C409.175 133.227 409.03 133.324 408.908 133.446L405.667 136.691L395.424 146.935C395.302 147.056 395.205 147.2 395.139 147.36C395.072 147.519 395.039 147.69 395.039 147.862V152.75C395.039 153.098 395.177 153.432 395.423 153.678C395.67 153.924 396.003 154.063 396.352 154.063H401.24C401.587 154.063 401.921 153.924 402.167 153.679L415.654 140.191C415.776 140.069 415.874 139.924 415.94 139.764C416.006 139.605 416.04 139.434 416.04 139.261C416.04 139.088 416.006 138.917 415.94 138.758C415.874 138.598 415.776 138.453 415.654 138.331L415.655 138.334ZM401.546 153.06C401.464 153.141 401.354 153.187 401.24 153.188H396.352C396.236 153.188 396.124 153.141 396.042 153.059C395.96 152.977 395.914 152.866 395.914 152.75V147.862C395.914 147.805 395.925 147.748 395.947 147.695C395.969 147.641 396.001 147.593 396.042 147.553L405.977 137.618L411.483 143.125L401.546 153.06ZM415.036 139.571L412.102 142.506L406.596 137L409.529 134.066C409.57 134.025 409.618 133.993 409.671 133.971C409.724 133.949 409.781 133.937 409.839 133.937C409.896 133.937 409.953 133.949 410.006 133.971C410.059 133.993 410.107 134.025 410.148 134.066L415.036 138.952C415.077 138.993 415.109 139.041 415.131 139.094C415.153 139.148 415.164 139.204 415.164 139.262C415.164 139.319 415.153 139.376 415.131 139.429C415.109 139.483 415.077 139.531 415.036 139.571Z" fill="white"/>
<path d="M403.039 21.9766V14.1016C403.039 14.0316 403.023 13.9627 402.99 13.9006C402.958 13.8385 402.912 13.785 402.855 13.7446C402.797 13.7043 402.732 13.6781 402.662 13.6685C402.593 13.6589 402.522 13.666 402.456 13.6892C400 14.5574 397.935 16.2739 396.631 18.5297C395.328 20.7854 394.873 23.4323 395.347 25.9939C395.359 26.063 395.388 26.1282 395.431 26.1839C395.474 26.2396 395.529 26.2841 395.593 26.3138C395.656 26.3436 395.726 26.3575 395.796 26.3546C395.866 26.3516 395.935 26.3318 395.996 26.2969L402.821 22.3594C402.888 22.3206 402.943 22.2648 402.982 22.1975C403.02 22.1303 403.04 22.054 403.039 21.9766ZM402.164 21.7239L396.113 25.2152C395.849 23.0491 396.297 20.8561 397.389 18.9668C398.48 17.0774 400.156 15.5941 402.164 14.7403V21.7239ZM406.102 13.0625C405.986 13.0625 405.875 13.1086 405.793 13.1906C405.711 13.2727 405.664 13.384 405.664 13.5V23.7944L396.827 28.9416C396.777 28.9706 396.734 29.0092 396.699 29.0551C396.664 29.1011 396.638 29.1535 396.624 29.2093C396.609 29.2651 396.606 29.3232 396.614 29.3803C396.622 29.4374 396.641 29.4924 396.671 29.542C397.642 31.1941 399.029 32.562 400.695 33.5089C402.361 34.4558 404.247 34.9484 406.163 34.9373C408.079 34.9263 409.959 34.412 411.614 33.4459C413.269 32.4799 414.641 31.096 415.593 29.4328C416.545 27.7697 417.043 25.8857 417.037 23.9694C417.032 22.0532 416.523 20.172 415.562 18.5142C414.601 16.8564 413.221 15.4802 411.561 14.5234C409.901 13.5666 408.018 13.0628 406.102 13.0625ZM406.102 34.0625C404.424 34.0577 402.773 33.6353 401.298 32.8334C399.824 32.0314 398.572 30.8751 397.656 29.4688L406.321 24.4244C406.387 24.386 406.442 24.3309 406.481 24.2644C406.519 24.198 406.539 24.1227 406.539 24.0459V13.9473C409.166 14.0636 411.644 15.2036 413.441 17.1233C415.238 19.043 416.212 21.5899 416.155 24.2188C416.097 26.8478 415.013 29.3499 413.135 31.1896C411.256 33.0294 408.732 34.0606 406.102 34.0625Z" fill="white"/>
<path d="M341.914 96.375C341.914 96.4911 341.868 96.6024 341.786 96.6844C341.704 96.7665 341.593 96.8125 341.477 96.8125H332.727C332.611 96.8125 332.499 96.7665 332.417 96.6844C332.335 96.6024 332.289 96.4911 332.289 96.375C332.289 96.259 332.335 96.1477 332.417 96.0657C332.499 95.9836 332.611 95.9375 332.727 95.9375H341.477C341.593 95.9375 341.704 95.9836 341.786 96.0657C341.868 96.1477 341.914 96.259 341.914 96.375ZM346.289 82.375C346.293 83.7673 345.978 85.1419 345.369 86.3941C344.761 87.6463 343.874 88.7429 342.777 89.6004C342.51 89.8058 342.293 90.0698 342.143 90.372C341.994 90.6742 341.915 91.0066 341.914 91.3438V92C341.914 92.3481 341.776 92.682 341.53 92.9281C341.284 93.1743 340.95 93.3125 340.602 93.3125H333.602C333.254 93.3125 332.92 93.1743 332.674 92.9281C332.427 92.682 332.289 92.3481 332.289 92V91.3438C332.289 91.0099 332.213 90.6805 332.065 90.3807C331.918 90.081 331.705 89.8189 331.44 89.6146C330.346 88.7625 329.459 87.6725 328.849 86.4271C328.238 85.1817 327.918 83.8136 327.914 82.4264C327.887 77.4532 331.909 73.3068 336.883 73.1875C338.108 73.1584 339.326 73.3745 340.466 73.8231C341.606 74.2717 342.645 74.9439 343.521 75.7999C344.398 76.656 345.094 77.6787 345.57 78.8079C346.045 79.937 346.29 81.1499 346.289 82.375ZM345.414 82.375C345.415 81.2663 345.193 80.1687 344.763 79.1468C344.332 78.1249 343.702 77.1995 342.909 76.4249C342.115 75.6503 341.175 75.0423 340.143 74.6366C339.111 74.2309 338.009 74.0357 336.9 74.0625C332.399 74.1719 328.764 77.9202 328.789 82.4221C328.793 83.6766 329.083 84.9137 329.635 86.0398C330.188 87.166 330.99 88.1517 331.98 88.9222C332.349 89.2088 332.647 89.5759 332.853 89.9957C333.058 90.4154 333.165 90.8765 333.164 91.3438V92C333.164 92.1161 333.21 92.2274 333.292 92.3094C333.374 92.3914 333.486 92.4375 333.602 92.4375H336.664V86.9316L333.292 83.5596C333.21 83.4775 333.164 83.3661 333.164 83.25C333.164 83.1339 333.21 83.0226 333.292 82.9405C333.374 82.8584 333.486 82.8123 333.602 82.8123C333.718 82.8123 333.829 82.8584 333.911 82.9405L337.102 86.131L340.292 82.9405C340.333 82.8999 340.381 82.8676 340.434 82.8456C340.487 82.8236 340.544 82.8123 340.602 82.8123C340.659 82.8123 340.716 82.8236 340.769 82.8456C340.822 82.8676 340.871 82.8999 340.911 82.9405C340.952 82.9812 340.984 83.0294 341.006 83.0825C341.028 83.1356 341.039 83.1926 341.039 83.25C341.039 83.3075 341.028 83.3644 341.006 83.4176C340.984 83.4707 340.952 83.5189 340.911 83.5596L337.539 86.9316V92.4375H340.602C340.718 92.4375 340.829 92.3914 340.911 92.3094C340.993 92.2274 341.039 92.1161 341.039 92V91.3438C341.04 90.8746 341.149 90.412 341.356 89.9911C341.564 89.5703 341.864 89.2024 342.236 88.9157C343.229 88.1397 344.032 87.147 344.582 86.0134C345.133 84.8798 345.418 83.6354 345.414 82.375Z" fill="white"/>
<path d="M182.329 93V84.2727H183.624V85.6364H183.738C183.92 85.1705 184.213 84.8087 184.619 84.5511C185.024 84.2898 185.511 84.1591 186.079 84.1591C186.655 84.1591 187.134 84.2898 187.516 84.5511C187.903 84.8087 188.204 85.1705 188.42 85.6364H188.511C188.734 85.1856 189.069 84.8277 189.516 84.5625C189.963 84.2936 190.499 84.1591 191.124 84.1591C191.905 84.1591 192.543 84.4034 193.039 84.892C193.535 85.3769 193.783 86.1326 193.783 87.1591V93H192.442V87.1591C192.442 86.5152 192.266 86.0549 191.914 85.7784C191.562 85.5019 191.147 85.3636 190.67 85.3636C190.056 85.3636 189.581 85.5492 189.244 85.9205C188.906 86.2879 188.738 86.7538 188.738 87.3182V93H187.374V87.0227C187.374 86.5265 187.213 86.1269 186.891 85.8239C186.569 85.517 186.155 85.3636 185.647 85.3636C185.299 85.3636 184.973 85.4564 184.67 85.642C184.371 85.8277 184.128 86.0852 183.942 86.4148C183.761 86.7405 183.67 87.1174 183.67 87.5455V93H182.329ZM196.235 93V84.2727H197.576V93H196.235ZM196.917 82.8182C196.656 82.8182 196.43 82.7292 196.241 82.5511C196.055 82.3731 195.962 82.1591 195.962 81.9091C195.962 81.6591 196.055 81.4451 196.241 81.267C196.43 81.089 196.656 81 196.917 81C197.178 81 197.402 81.089 197.587 81.267C197.777 81.4451 197.871 81.6591 197.871 81.9091C197.871 82.1591 197.777 82.3731 197.587 82.5511C197.402 82.7292 197.178 82.8182 196.917 82.8182ZM201.373 87.75V93H200.032V84.2727H201.327V85.6364H201.441C201.646 85.1932 201.956 84.8371 202.373 84.5682C202.79 84.2955 203.327 84.1591 203.987 84.1591C204.577 84.1591 205.094 84.2803 205.538 84.5227C205.981 84.7614 206.326 85.125 206.572 85.6136C206.818 86.0985 206.941 86.7121 206.941 87.4545V93H205.6V87.5455C205.6 86.8598 205.422 86.3258 205.066 85.9432C204.71 85.5568 204.221 85.3636 203.6 85.3636C203.172 85.3636 202.79 85.4564 202.452 85.642C202.119 85.8277 201.856 86.0985 201.663 86.4545C201.469 86.8106 201.373 87.2424 201.373 87.75ZM212.687 93.1818C211.96 93.1818 211.317 92.9981 210.761 92.6307C210.204 92.2595 209.768 91.7367 209.454 91.0625C209.139 90.3845 208.982 89.5833 208.982 88.6591C208.982 87.7424 209.139 86.947 209.454 86.2727C209.768 85.5985 210.206 85.0777 210.766 84.7102C211.327 84.3428 211.975 84.1591 212.71 84.1591C213.278 84.1591 213.727 84.2538 214.056 84.4432C214.389 84.6288 214.643 84.8409 214.817 85.0795C214.996 85.3144 215.134 85.5076 215.232 85.6591H215.346V81.3636H216.687V93H215.391V91.6591H215.232C215.134 91.8182 214.994 92.0189 214.812 92.2614C214.63 92.5 214.371 92.714 214.033 92.9034C213.696 93.089 213.247 93.1818 212.687 93.1818ZM212.869 91.9773C213.406 91.9773 213.861 91.8371 214.232 91.5568C214.603 91.2727 214.886 90.8807 215.079 90.3807C215.272 89.8769 215.369 89.2955 215.369 88.6364C215.369 87.9848 215.274 87.4148 215.085 86.9261C214.895 86.4337 214.615 86.0511 214.244 85.7784C213.872 85.5019 213.414 85.3636 212.869 85.3636C212.3 85.3636 211.827 85.5095 211.448 85.8011C211.073 86.089 210.791 86.4811 210.602 86.9773C210.416 87.4697 210.323 88.0227 210.323 88.6364C210.323 89.2576 210.418 89.822 210.607 90.3295C210.8 90.8333 211.085 91.2348 211.46 91.5341C211.838 91.8295 212.308 91.9773 212.869 91.9773ZM224.329 87.3864V88.6364H219.238V87.3864H224.329ZM226.688 93V84.2727H227.984V85.6364H228.097C228.279 85.1705 228.573 84.8087 228.978 84.5511C229.383 84.2898 229.87 84.1591 230.438 84.1591C231.014 84.1591 231.493 84.2898 231.876 84.5511C232.262 84.8087 232.563 85.1705 232.779 85.6364H232.87C233.094 85.1856 233.429 84.8277 233.876 84.5625C234.323 84.2936 234.859 84.1591 235.484 84.1591C236.264 84.1591 236.902 84.4034 237.398 84.892C237.895 85.3769 238.143 86.1326 238.143 87.1591V93H236.802V87.1591C236.802 86.5152 236.626 86.0549 236.273 85.7784C235.921 85.5019 235.506 85.3636 235.029 85.3636C234.415 85.3636 233.94 85.5492 233.603 85.9205C233.266 86.2879 233.097 86.7538 233.097 87.3182V93H231.734V87.0227C231.734 86.5265 231.573 86.1269 231.251 85.8239C230.929 85.517 230.514 85.3636 230.006 85.3636C229.658 85.3636 229.332 85.4564 229.029 85.642C228.73 85.8277 228.487 86.0852 228.302 86.4148C228.12 86.7405 228.029 87.1174 228.029 87.5455V93H226.688ZM243.163 93.2045C242.61 93.2045 242.108 93.1004 241.657 92.892C241.206 92.6799 240.848 92.375 240.583 91.9773C240.318 91.5758 240.185 91.0909 240.185 90.5227C240.185 90.0227 240.284 89.6174 240.481 89.3068C240.678 88.9924 240.941 88.7462 241.271 88.5682C241.6 88.3902 241.964 88.2576 242.362 88.1705C242.763 88.0795 243.166 88.0076 243.572 87.9545C244.102 87.8864 244.532 87.8352 244.862 87.8011C245.195 87.7633 245.437 87.7008 245.589 87.6136C245.744 87.5265 245.822 87.375 245.822 87.1591V87.1136C245.822 86.553 245.668 86.1174 245.362 85.8068C245.058 85.4962 244.598 85.3409 243.981 85.3409C243.341 85.3409 242.839 85.4811 242.475 85.7614C242.112 86.0417 241.856 86.3409 241.708 86.6591L240.435 86.2045C240.663 85.6742 240.966 85.2614 241.344 84.9659C241.727 84.6667 242.144 84.4583 242.594 84.3409C243.049 84.2197 243.496 84.1591 243.935 84.1591C244.216 84.1591 244.538 84.1932 244.901 84.2614C245.269 84.3258 245.623 84.4602 245.964 84.6648C246.308 84.8693 246.594 85.178 246.822 85.5909C247.049 86.0038 247.163 86.5568 247.163 87.25V93H245.822V91.8182H245.754C245.663 92.0076 245.511 92.2102 245.299 92.4261C245.087 92.642 244.805 92.8258 244.452 92.9773C244.1 93.1288 243.67 93.2045 243.163 93.2045ZM243.367 92C243.897 92 244.344 91.8958 244.708 91.6875C245.076 91.4792 245.352 91.2102 245.538 90.8807C245.727 90.5511 245.822 90.2045 245.822 89.8409V88.6136C245.765 88.6818 245.64 88.7443 245.447 88.8011C245.257 88.8542 245.038 88.9015 244.788 88.9432C244.541 88.9811 244.301 89.0152 244.066 89.0455C243.835 89.072 243.647 89.0947 243.504 89.1136C243.155 89.1591 242.829 89.233 242.526 89.3352C242.227 89.4337 241.985 89.5833 241.799 89.7841C241.617 89.9811 241.526 90.25 241.526 90.5909C241.526 91.0568 241.699 91.4091 242.043 91.6477C242.392 91.8826 242.833 92 243.367 92ZM249.61 96.2727V84.2727H250.906V85.6591H251.065C251.163 85.5076 251.299 85.3144 251.474 85.0795C251.652 84.8409 251.906 84.6288 252.235 84.4432C252.568 84.2538 253.019 84.1591 253.587 84.1591C254.322 84.1591 254.97 84.3428 255.531 84.7102C256.091 85.0777 256.529 85.5985 256.843 86.2727C257.157 86.947 257.315 87.7424 257.315 88.6591C257.315 89.5833 257.157 90.3845 256.843 91.0625C256.529 91.7367 256.093 92.2595 255.536 92.6307C254.979 92.9981 254.337 93.1818 253.61 93.1818C253.049 93.1818 252.601 93.089 252.263 92.9034C251.926 92.714 251.667 92.5 251.485 92.2614C251.303 92.0189 251.163 91.8182 251.065 91.6591H250.951V96.2727H249.61ZM250.928 88.6364C250.928 89.2955 251.025 89.8769 251.218 90.3807C251.411 90.8807 251.693 91.2727 252.065 91.5568C252.436 91.8371 252.89 91.9773 253.428 91.9773C253.989 91.9773 254.457 91.8295 254.832 91.5341C255.21 91.2348 255.495 90.8333 255.684 90.3295C255.877 89.822 255.974 89.2576 255.974 88.6364C255.974 88.0227 255.879 87.4697 255.69 86.9773C255.504 86.4811 255.222 86.089 254.843 85.8011C254.468 85.5095 253.996 85.3636 253.428 85.3636C252.883 85.3636 252.424 85.5019 252.053 85.7784C251.682 86.0511 251.402 86.4337 251.212 86.9261C251.023 87.4148 250.928 87.9848 250.928 88.6364Z" fill="white"/>
<path d="M0.101562 88.0038C0.101562 88.0038 17.2644 91.5688 28.0419 88.0038C34.1187 85.9937 37.1749 80.3156 43.3254 80.01C52.2022 79.5689 56.1777 93.8737 65.0568 93.9991C71.0376 94.0836 80.1016 88.0038 80.1016 88.0038" stroke="url(#paint0_linear_625_1772)"/>
<circle cx="103.102" cy="86" r="23.5" fill="#1F1A2B" stroke="#EF438B"/>
<path d="M100.825 89.3906C102.099 88.8113 103.135 87.8134 103.763 86.563C104.391 85.3126 104.571 83.8851 104.275 82.5178C103.978 81.1505 103.223 79.9259 102.134 79.0477C101.045 78.1694 99.6879 77.6905 98.2888 77.6905C96.8898 77.6905 95.5329 78.1694 94.4438 79.0477C93.3548 79.9259 92.5993 81.1505 92.3029 82.5178C92.0064 83.8851 92.1871 85.3126 92.8146 86.563C93.4422 87.8134 94.479 88.8113 95.7524 89.3906C93.3253 90.0197 91.2213 91.5339 89.8538 93.6355C89.8214 93.6836 89.799 93.7376 89.7877 93.7945C89.7764 93.8514 89.7765 93.9099 89.788 93.9667C89.7996 94.0236 89.8223 94.0775 89.8549 94.1255C89.8874 94.1734 89.9292 94.2145 89.9778 94.2461C90.0264 94.2778 90.0807 94.2995 90.1378 94.31C90.1948 94.3205 90.2533 94.3195 90.31 94.3072C90.3666 94.2948 90.4202 94.2713 90.4677 94.2381C90.5152 94.2048 90.5556 94.1624 90.5866 94.1134C91.4209 92.8305 92.5623 91.7764 93.9074 91.0466C95.2525 90.3168 96.7585 89.9346 98.2888 89.9346C99.8191 89.9346 101.325 90.3168 102.67 91.0466C104.015 91.7764 105.157 92.8305 105.991 94.1134C106.022 94.1624 106.062 94.2048 106.11 94.2381C106.157 94.2713 106.211 94.2948 106.268 94.3072C106.324 94.3195 106.383 94.3205 106.44 94.31C106.497 94.2995 106.551 94.2778 106.6 94.2461C106.648 94.2145 106.69 94.1734 106.723 94.1255C106.755 94.0775 106.778 94.0236 106.79 93.9667C106.801 93.9099 106.801 93.8514 106.79 93.7945C106.779 93.7376 106.756 93.6836 106.724 93.6355C105.356 91.5339 103.252 90.0197 100.825 89.3906ZM93.0388 83.8125C93.0388 82.7741 93.3467 81.7591 93.9236 80.8958C94.5005 80.0324 95.3204 79.3595 96.2797 78.9621C97.239 78.5648 98.2946 78.4608 99.313 78.6634C100.331 78.8659 101.267 79.366 102.001 80.1002C102.735 80.8344 103.235 81.7699 103.438 82.7883C103.641 83.8067 103.537 84.8623 103.139 85.8216C102.742 86.7809 102.069 87.6008 101.206 88.1777C100.342 88.7546 99.3272 89.0625 98.2888 89.0625C96.8969 89.061 95.5623 88.5075 94.5781 87.5232C93.5938 86.539 93.0403 85.2044 93.0388 83.8125ZM116.226 94.2414C116.129 94.3045 116.011 94.3265 115.897 94.3025C115.784 94.2786 115.685 94.2105 115.621 94.1134C114.788 92.829 113.646 91.7739 112.299 91.0444C110.953 90.3149 109.445 89.9344 107.914 89.9375C107.798 89.9375 107.686 89.8914 107.604 89.8094C107.522 89.7273 107.476 89.616 107.476 89.5C107.476 89.384 107.522 89.2727 107.604 89.1906C107.686 89.1086 107.798 89.0625 107.914 89.0625C108.687 89.0621 109.451 88.8908 110.15 88.561C110.85 88.2312 111.468 87.7509 111.96 87.1545C112.452 86.5581 112.807 85.8604 112.998 85.1111C113.189 84.3618 113.212 83.5795 113.066 82.8202C112.92 82.0608 112.608 81.3431 112.152 80.7184C111.697 80.0937 111.108 79.5773 110.43 79.2063C109.751 78.8352 108.999 78.6187 108.228 78.572C107.456 78.5254 106.683 78.6499 105.965 78.9366C105.911 78.9581 105.854 78.9689 105.797 78.9684C105.739 78.9679 105.682 78.9561 105.629 78.9336C105.576 78.9111 105.528 78.8784 105.488 78.8373C105.448 78.7962 105.416 78.7477 105.394 78.6943C105.373 78.6409 105.362 78.5839 105.363 78.5263C105.363 78.4688 105.375 78.4119 105.397 78.3589C105.42 78.306 105.453 78.2579 105.494 78.2176C105.535 78.1773 105.583 78.1454 105.637 78.1239C107.131 77.4857 108.817 77.4671 110.324 78.0722C111.832 78.6773 113.038 79.8565 113.676 81.3505C114.314 82.8444 114.332 84.5306 113.727 86.0382C113.122 87.5459 111.943 88.7513 110.449 89.3895C112.877 90.02 114.981 91.5362 116.348 93.6398C116.41 93.736 116.433 93.8529 116.41 93.9655C116.387 94.078 116.321 94.1771 116.226 94.2414Z" fill="white"/>
<defs>
<linearGradient id="paint0_linear_625_1772" x1="0.101562" y1="87" x2="80.1016" y2="87" gradientUnits="userSpaceOnUse">
<stop offset="0.108003" stop-color="#1F1A2B" stop-opacity="0.8"/>
<stop offset="1" stop-color="#EF438B"/>
</linearGradient>
</defs>
</svg>
